<?xml version="1.0" encoding="utf-8"?>
<!-- Generator: Adobe Illustrator 21.0.2, SVG Export Plug-In . SVG Version: 6.00 Build 0)  -->
<svg xmlns="http://www.w3.org/2000/svg" xmlns:xlink="http://www.w3.org/1999/xlink" version="1.1" id="Layer_1" x="0px" y="0px" viewBox="0 0 48 48" style="enable-background:new 0 0 48 48;" xml:space="preserve" width="96px" height="96px">
<g id="surface1">
	<rect x="2" y="34" style="fill:#FF3D00;" width="8" height="2"/>
	<rect x="2" y="31" style="fill:#FF3D00;" width="8" height="2"/>
	<rect x="2" y="28" style="fill:#FF3D00;" width="8" height="2"/>
	<rect x="2" y="25" style="fill:#FF9E80;" width="8" height="2"/>
	<rect x="2" y="22" style="fill:#FF9E80;" width="8" height="2"/>
	<rect x="29" y="25" style="fill:#E6EE9C;" width="8" height="2"/>
	<rect x="29" y="22" style="fill:#E6EE9C;" width="8" height="2"/>
	<rect x="20" y="25" style="fill:#F8BBD0;" width="8" height="2"/>
	<rect x="20" y="22" style="fill:#F8BBD0;" width="8" height="2"/>
	<rect x="20" y="19" style="fill:#F8BBD0;" width="8" height="2"/>
	<rect x="20" y="16" style="fill:#F8BBD0;" width="8" height="2"/>
	<rect x="11" y="34" style="fill:#FFEB3B;" width="8" height="2"/>
	<rect x="11" y="31" style="fill:#FFEB3B;" width="8" height="2"/>
	<rect x="11" y="28" style="fill:#FFEB3B;" width="8" height="2"/>
	<rect x="20" y="34" style="fill:#FF4081;" width="8" height="2"/>
	<rect x="20" y="31" style="fill:#FF4081;" width="8" height="2"/>
	<rect x="20" y="28" style="fill:#FF4081;" width="8" height="2"/>
	<rect x="29" y="34" style="fill:#CDDC39;" width="8" height="2"/>
	<rect x="29" y="31" style="fill:#CDDC39;" width="8" height="2"/>
	<rect x="29" y="28" style="fill:#CDDC39;" width="8" height="2"/>
	<rect x="38" y="34" style="fill:#4FC3F7;" width="8" height="2"/>
	<rect x="38" y="31" style="fill:#4FC3F7;" width="8" height="2"/>
	<rect x="38" y="28" style="fill:#4FC3F7;" width="8" height="2"/>
	<rect x="38" y="25" style="fill:#B3E5FC;" width="8" height="2"/>
	<rect x="38" y="22" style="fill:#B3E5FC;" width="8" height="2"/>
	<rect x="38" y="19" style="fill:#B3E5FC;" width="8" height="2"/>
	<rect x="38" y="16" style="fill:#B3E5FC;" width="8" height="2"/>
	<rect x="38" y="13" style="fill:#B3E5FC;" width="8" height="2"/>
</g>
</svg>
