<?xml version="1.0" encoding="UTF-8" standalone="no"?>
<!-- Created with Inkscape (http://www.inkscape.org/) -->

<svg
   xmlns:dc="http://purl.org/dc/elements/1.1/"
   xmlns:cc="http://creativecommons.org/ns#"
   xmlns:rdf="http://www.w3.org/1999/02/22-rdf-syntax-ns#"
   xmlns:svg="http://www.w3.org/2000/svg"
   xmlns="http://www.w3.org/2000/svg"
   xmlns:sodipodi="http://sodipodi.sourceforge.net/DTD/sodipodi-0.dtd"
   xmlns:inkscape="http://www.inkscape.org/namespaces/inkscape"
   width="16.941307mm"
   height="13.548068mm"
   viewBox="0 0 60.028254 48.004966"
   id="svg10994"
   version="1.1"
   inkscape:version="0.92.1 r15371"
   sodipodi:docname="logo-everes-studio150x120.svg">
  <defs
     id="defs10996" />
  <sodipodi:namedview
     id="base"
     pagecolor="#ffffff"
     bordercolor="#666666"
     borderopacity="1.0"
     inkscape:pageopacity="0.0"
     inkscape:pageshadow="2"
     inkscape:zoom="2.1898354"
     inkscape:cx="163.76609"
     inkscape:cy="25.101446"
     inkscape:document-units="px"
     inkscape:current-layer="layer1"
     showgrid="false"
     fit-margin-top="0"
     fit-margin-left="0"
     fit-margin-right="0"
     fit-margin-bottom="0"
     inkscape:window-width="1920"
     inkscape:window-height="1017"
     inkscape:window-x="-8"
     inkscape:window-y="-8"
     inkscape:window-maximized="1" />
  <metadata
     id="metadata10999">
    <rdf:RDF>
      <cc:Work
         rdf:about="">
        <dc:format>image/svg+xml</dc:format>
        <dc:type
           rdf:resource="http://purl.org/dc/dcmitype/StillImage" />
        <dc:title />
      </cc:Work>
    </rdf:RDF>
  </metadata>
  <g
     inkscape:label="Layer 1"
     inkscape:groupmode="layer"
     id="layer1"
     transform="translate(741.84088,-1164.1889)">
    <path
       id="path4287-7"
       style="opacity:1;fill:#ffffff;fill-opacity:1;fill-rule:nonzero;stroke:none;stroke-width:0.80000001;stroke-miterlimit:4;stroke-dasharray:none;stroke-opacity:1"
       d="m -690.27191,1169.2606 c -5.80066,2.5987 -14.36842,10.1769 -16.99688,15.9351 2.74604,-6.9905 9.92498,-13.287 16.99688,-15.9351 z m -43.11008,0 c 5.80066,2.5987 14.36842,10.1769 16.99688,15.9351 -2.74604,-6.9905 -9.92498,-13.287 -16.99688,-15.9351 z m 48.84702,-5.0713 c -2.35158,-0.012 -4.70727,0.3795 -6.93359,1.1469 -2.57385,0.8871 -4.96505,2.2547 -7.12188,3.9071 -2.12267,1.6262 -4.04115,3.5102 -5.77031,5.5476 -1.86813,2.2008 -3.49292,4.6256 -4.68125,7.2617 -1.20726,2.6778 -1.93283,5.585 -2.01875,8.5258 -0.0141,0.4841 -0.0291,0.9768 0.057,1.4555 0.11603,0.6448 0.39807,1.2546 0.79766,1.7726 0.40357,0.5233 0.95578,0.8882 1.30234,1.4704 0.7325,1.1649 0.91773,2.5722 0.94297,3.9265 3e-5,0 0,0.01 0,0.01 -0.006,0.9434 0.10844,1.8934 0.40547,2.7914 0.43142,1.3045 1.2205,2.4705 2.19375,3.4321 0.95452,0.8932 2.0452,1.6353 3.11562,2.389 1.11936,0.7882 2.318,1.4619 3.35938,2.3578 0.64795,0.5575 1.26471,1.1988 1.5664,2.0102 0.70666,-0.2515 1.36237,-0.6931 1.78126,-1.3226 0.51184,-0.7692 0.67103,-1.7274 0.61874,-2.6368 -0.13444,-1.2416 -0.79364,-2.372 -1.07578,-3.5851 -0.21504,-0.8065 -0.15912,-1.6638 0.002,-2.4805 0.23924,-1.21 0.86848,-2.3314 1.75938,-3.182 0.71676,-0.6844 1.4262,-1.4379 1.80234,-2.3704 0.2824,-0.7001 1.04398,-2.2527 0.11172,-3.7117 -0.93225,-1.459 -2.65411,-2.3277 -4.84375,-2.7226 -0.93439,-0.1686 -3.99509,-0.4982 -5.99141,-0.3633 -0.89782,0.061 -1.80314,0.2156 -2.64843,0.5242 -0.5495,0.2006 -1.33716,0.5923 -1.84609,0.9289 -0.68989,0.4758 -1.93296,0.9241 -1.19766,-0.2773 0.17382,-0.2613 0.48952,-0.5467 0.94297,-0.8813 0.45346,-0.3346 1.01779,-0.5732 1.83593,-0.9109 0.70054,-0.2881 1.85019,-0.4865 2.86328,-0.6258 2.06611,-0.3186 6.99642,0.4059 10.32735,0.5547 1.07366,0.028 2.15829,-0.093 3.19375,-0.3969 1.21146,-0.3549 2.4732,-0.8112 3.35469,-1.7289 3.93151,-4.0929 -6.03577,-16.0149 4.47265,-22.1031 0.20546,-0.1191 -0.35314,-0.3226 -0.575,-0.4055 -0.6679,-0.2496 -1.39732,-0.2859 -2.10312,-0.3031 z m -0.41953,0.8024 c 0.46701,-0.01 0.93557,0 1.4,0.057 -3.92836,2.6142 -4.72428,7.853 -3.72422,12.186 0.24383,3.0577 2.38151,6.8044 0.0969,9.4695 -4.96098,3.3765 -11.04941,0.2664 -16.52266,1.1336 -2.28977,0.3833 -5.56196,1.1289 -6.17031,3.7375 0.60166,2.17 2.96902,0.034 4.14453,-0.407 3.57444,-1.0529 7.65186,-0.7244 11.08203,0.6773 2.23206,0.8254 2.41795,3.4558 1.11797,5.1367 -1.99171,1.9424 -3.91431,4.493 -3.32578,7.4719 0.51003,2.1372 2.27918,5.0573 -0.10157,6.6781 -1.47221,-2.1776 -4.02678,-3.233 -6.01952,-4.8078 -2.87214,-1.6879 -4.5339,-4.8787 -4.24063,-8.2008 0.006,-2.2132 -1.45163,-3.906 -2.76328,-5.4859 -0.86969,-4.3153 0.79098,-8.8208 2.86562,-12.5891 4.72705,-7.7747 12.64774,-14.917 22.16094,-15.057 z m -23.653,4.9444 c -0.2426,0.015 -0.48651,0.096 -0.62812,0.3008 -0.12409,0.2032 -0.15887,0.4793 -0.0445,0.6961 0.30404,0.6355 0.80486,1.1527 1.0625,1.8133 0.42502,1.0898 0.4281,2.299 0.23672,3.439 -0.15136,0.9016 -0.47828,1.7788 -0.97891,2.5454 -4e-4,0 -8e-4,0 -0.002,0 -0.65631,0.8494 -1.36116,1.6594 -2.04375,2.4874 1.32543,-1.2557 2.53055,-2.6611 3.35782,-4.2968 0.67651,-1.3376 1.05001,-2.8613 0.87343,-4.3625 -0.0938,-0.6537 -0.26794,-1.3107 -0.60312,-1.8859 -0.211,-0.3622 -0.55651,-0.6923 -0.99141,-0.7352 -0.0767,-0.01 -0.15819,-0.01 -0.23906,-0.01 z m 0.18047,0.804 c 0.0705,0.012 0.23444,0.1474 0.25547,0.1906 0.79618,1.408 0.23286,0.7856 -0.28594,-0.1532 -0.006,-0.032 0.007,-0.041 0.0305,-0.038 z m -3.40012,11.3258 c -0.48766,1.0782 -0.74499,2.5504 -0.91407,3.718 -0.0753,1.6177 0.71876,3.1876 0.70469,4.807 -0.012,1.3821 -0.59438,2.7114 -0.67266,4.0914 -0.0658,1.1595 -0.034,2.5682 0.17266,3.4797 0.20666,0.9115 0.64922,0.9109 0.64922,0.9109 h 0.0609 0.0602 c 0,0 0.44256,0 0.64922,-0.9109 0.20667,-0.9115 0.23843,-2.3202 0.17266,-3.4797 -0.0783,-1.38 -0.66065,-2.7093 -0.67266,-4.0914 -0.0141,-1.6194 0.78003,-3.1893 0.70469,-4.807 -0.16908,-1.1676 -0.4264,-2.6398 -0.91406,-3.718 h -8e-4 z m -0.009,3.368 c 0.43459,-0.069 -0.3007,3.6468 -0.0453,0.019 0.0165,-0.01 0.0313,-0.016 0.0453,-0.019 z m 0.005,8.6187 c 0.15836,0.8272 0.12868,1.9203 0.0805,2.8414 -0.1789,1.4625 -0.2848,-2.0764 -0.0805,-2.8414 z m -27.28738,-29.8634 c 2.35159,-0.012 4.70728,0.3794 6.9336,1.1469 2.57384,0.887 4.96504,2.2546 7.12187,3.907 2.12268,1.6262 4.04116,3.5103 5.77031,5.5476 1.86813,2.2009 3.49293,4.6257 4.68125,7.2618 1.20727,2.6777 1.93283,5.585 2.01875,8.5258 0.0141,0.4841 0.0291,0.9767 -0.057,1.4554 -0.11602,0.6449 -0.39806,1.2546 -0.79765,1.7727 -0.40358,0.5232 -0.95578,0.8881 -1.30235,1.4703 -0.7325,1.165 -0.91773,2.5723 -0.94297,3.9266 -2e-5,0 0,0.01 0,0.01 0.006,0.9434 -0.10843,1.8934 -0.40546,2.7914 -0.43142,1.3044 -1.22051,2.4704 -2.19376,3.432 -0.95452,0.8932 -2.04519,1.6353 -3.11562,2.3891 -1.11935,0.7881 -2.318,1.4619 -3.35938,2.3578 -0.64794,0.5575 -1.26471,1.1987 -1.5664,2.0101 -0.70665,-0.2515 -1.36236,-0.693 -1.78125,-1.3226 -0.51185,-0.7692 -0.67103,-1.7274 -0.61875,-2.6367 0.13444,-1.2417 0.79365,-2.3721 1.07578,-3.5852 0.21504,-0.8064 0.15912,-1.6638 -0.002,-2.4805 -0.23924,-1.21 -0.86848,-2.3314 -1.75938,-3.182 -0.71676,-0.6844 -1.42619,-1.4378 -1.80234,-2.3703 -0.2824,-0.7001 -1.04398,-2.2528 -0.11172,-3.7117 0.93226,-1.4591 2.65412,-2.3277 4.84375,-2.7227 0.93439,-0.1685 3.99509,-0.4981 5.99141,-0.3633 0.89782,0.061 1.80314,0.2157 2.64844,0.5242 0.5495,0.2006 1.33715,0.5923 1.84609,0.929 0.68988,0.4758 1.93296,0.924 1.19765,-0.2774 -0.17382,-0.2612 -0.48951,-0.5466 -0.94296,-0.8812 -0.45346,-0.3346 -1.0178,-0.5733 -1.83594,-0.911 -0.70054,-0.288 -1.85019,-0.4864 -2.86328,-0.6258 -2.06611,-0.3186 -6.99642,0.406 -10.32734,0.5548 -1.07366,0.028 -2.1583,-0.094 -3.19376,-0.3969 -1.21145,-0.355 -2.4732,-0.8113 -3.35468,-1.7289 -3.93152,-4.093 6.03576,-16.0149 -4.47266,-22.1032 -0.20546,-0.119 0.35314,-0.3225 0.575,-0.4054 0.6679,-0.2497 1.39732,-0.286 2.10313,-0.3032 z m 0.41953,0.8023 c -0.46701,-0.01 -0.93556,0 -1.4,0.057 3.92837,2.6142 4.72429,7.853 3.72422,12.186 -0.24383,3.0577 -2.38151,6.8044 -0.0969,9.4695 4.96097,3.3765 11.04941,0.2665 16.52265,1.1336 2.28977,0.3834 5.56197,1.1289 6.17031,3.7375 -0.60165,2.17 -2.96902,0.034 -4.14452,-0.407 -3.57445,-1.0528 -7.65187,-0.7243 -11.08204,0.6773 -2.23205,0.8254 -2.41795,3.4559 -1.11796,5.1367 1.9917,1.9424 3.9143,4.493 3.32578,7.4719 -0.51004,2.1372 -2.27918,5.0573 0.10156,6.6781 1.47221,-2.1776 4.02678,-3.233 6.01953,-4.8078 2.87214,-1.6878 4.53389,-4.8787 4.24063,-8.2008 -0.006,-2.2131 1.45162,-3.906 2.76328,-5.4859 0.86968,-4.3153 -0.79098,-8.8207 -2.86563,-12.5891 -4.72704,-7.7747 -12.64774,-14.9169 -22.16094,-15.057 z m 23.65284,4.9446 c 0.24261,0.015 0.48651,0.096 0.62813,0.3008 0.12408,0.2032 0.15887,0.4793 0.0445,0.6961 -0.30404,0.6355 -0.80486,1.1527 -1.0625,1.8133 -0.42503,1.0898 -0.4281,2.299 -0.23672,3.439 0.15135,0.9016 0.47827,1.7788 0.9789,2.5454 4e-4,0 8e-4,0 0.002,0 0.65632,0.8494 1.36117,1.6594 2.04375,2.4874 -1.32543,-1.2557 -2.53054,-2.6611 -3.35781,-4.2968 -0.67651,-1.3376 -1.05002,-2.8613 -0.87344,-4.3625 0.0938,-0.6537 0.26795,-1.3107 0.60313,-1.8859 0.21099,-0.3622 0.55651,-0.6923 0.9914,-0.7352 0.0767,-0.01 0.1582,-0.01 0.23907,-0.01 z m -0.18047,0.804 c -0.0705,0.012 -0.23444,0.1474 -0.25547,0.1906 -0.79617,1.408 -0.23286,0.7856 0.28594,-0.1532 0.006,-0.032 -0.007,-0.041 -0.0305,-0.038 z"
       inkscape:connector-curvature="0" />
  </g>
</svg>
